<svg width="14" height="14" viewBox="0 0 14 14" fill="none" xmlns="http://www.w3.org/2000/svg">
<g clip-path="url(#clip0_1222_37599)">
<path d="M8.5 5C9.05228 5 9.5 4.55228 9.5 4C9.5 3.44772 9.05228 3 8.5 3C7.94772 3 7.5 3.44772 7.5 4C7.5 4.55228 7.94772 5 8.5 5Z" stroke="black" stroke-linecap="round" stroke-linejoin="round"/>
<path d="M4.5 10C4.77614 10 5 9.77614 5 9.5C5 9.22386 4.77614 9 4.5 9C4.22386 9 4 9.22386 4 9.5C4 9.77614 4.22386 10 4.5 10Z" stroke="black" stroke-linecap="round" stroke-linejoin="round"/>
<path d="M4.5 6.5C5.05228 6.5 5.5 6.05228 5.5 5.5C5.5 4.94772 5.05228 4.5 4.5 4.5C3.94772 4.5 3.5 4.94772 3.5 5.5C3.5 6.05228 3.94772 6.5 4.5 6.5Z" stroke="black" stroke-linecap="round" stroke-linejoin="round"/>
<path d="M9.52002 12.28C9.50887 12.086 9.44146 11.8995 9.32603 11.7432C9.2106 11.587 9.05214 11.4677 8.87002 11.4C8.41772 11.2513 8.03329 10.9462 7.78584 10.5395C7.5384 10.1327 7.44416 9.65106 7.52009 9.18105C7.59601 8.71105 7.83711 8.28354 8.20004 7.9754C8.56297 7.66726 9.02392 7.49869 9.50002 7.5H11.37C11.6907 7.5009 12.007 7.42464 12.2921 7.27767C12.5771 7.1307 12.8227 6.91732 13.008 6.65554C13.1933 6.39375 13.3129 6.09124 13.3568 5.77353C13.4007 5.45581 13.3675 5.1322 13.26 4.83C12.8623 3.70697 12.1635 2.71485 11.2401 1.96205C10.3167 1.20924 9.20417 0.724704 8.02404 0.561374C6.8439 0.398044 5.64158 0.562205 4.54842 1.03592C3.45526 1.50964 2.51333 2.27468 1.82553 3.24748C1.13773 4.22027 0.730524 5.36339 0.648398 6.55194C0.566273 7.74049 0.812389 8.92875 1.35986 9.9869C1.90732 11.045 2.73508 11.9324 3.7527 12.5519C4.77031 13.1715 5.93863 13.4995 7.13002 13.5C7.71838 13.5016 8.30407 13.4209 8.87002 13.26C9.07788 13.2018 9.25789 13.0707 9.37721 12.8908C9.49653 12.7109 9.54721 12.4942 9.52002 12.28Z" stroke="black" stroke-linecap="round" stroke-linejoin="round"/>
</g>
<defs>
<clipPath id="clip0_1222_37599">
<rect width="14" height="14" fill="white"/>
</clipPath>
</defs>
</svg>
