<svg width="14" height="14" viewBox="0 0 14 14" fill="none" xmlns="http://www.w3.org/2000/svg">
<g clip-path="url(#clip0_1222_41922)">
<path d="M6.92572 13.2018L3.92572 13.4618L4.18572 10.4618L10.4257 4.26181C10.5189 4.16657 10.6301 4.09089 10.7529 4.03922C10.8756 3.98755 11.0075 3.96094 11.1407 3.96094C11.2739 3.96094 11.4058 3.98755 11.5286 4.03922C11.6514 4.09089 11.7626 4.16657 11.8557 4.26181L13.1257 5.54181C13.2194 5.63478 13.2938 5.74538 13.3446 5.86724C13.3954 5.9891 13.4215 6.1198 13.4215 6.25181C13.4215 6.38382 13.3954 6.51453 13.3446 6.63639C13.2938 6.75825 13.2194 6.86885 13.1257 6.96181L6.92572 13.2018Z" stroke="black" stroke-linecap="round" stroke-linejoin="round"/>
<path d="M0.841689 3.97204C0.490759 3.91098 0.490759 3.40721 0.841688 3.34616C2.11305 3.12497 3.12423 2.15661 3.40019 0.896007L3.42134 0.799378C3.49726 0.452545 3.99111 0.450386 4.07006 0.796542L4.09574 0.909152C4.38191 2.16381 5.39337 3.12399 6.6612 3.34456C7.01392 3.40592 7.01392 3.91227 6.6612 3.97363C5.39337 4.1942 4.38191 5.15438 4.09574 6.40904L4.07006 6.52165C3.99111 6.86781 3.49726 6.86565 3.42134 6.51881L3.40019 6.42219C3.12423 5.16158 2.11305 4.19322 0.841689 3.97204Z" stroke="black" stroke-linecap="round" stroke-linejoin="round"/>
</g>
<defs>
<clipPath id="clip0_1222_41922">
<rect width="14" height="14" fill="white"/>
</clipPath>
</defs>
</svg>
